<?xml version="1.0" encoding="UTF-8"?>
<svg id="Layer_1" xmlns="http://www.w3.org/2000/svg" version="1.1" viewBox="0 0 857.9 423.47">
  <!-- Generator: Adobe Illustrator 30.3.0, SVG Export Plug-In . SVG Version: 2.1.3 Build 182)  -->
  <defs>
    <style>
      .st0 {
        fill: #a3d233;
      }
    </style>
  </defs>
  <path class="st0" d="M186.18,92.48c-79.1,0-125.34,51.11-125.34,119.25,0,80.31,62.06,136.29,138.72,136.29,94.92,0,137.51-46.24,215.39-148.46l18.25,42.59c-75.45,131.42-158.19,181.31-244.59,181.31C81.53,423.47,0,338.29,0,217.82S82.75,0,204.44,0c114.38,0,191.05,81.53,256.76,164.28,66.93,86.4,132.64,166.71,210.52,166.71s125.34-51.11,125.34-119.25c0-80.31-62.06-136.29-138.73-136.29-94.91,0-137.51,46.24-215.39,148.46l-18.25-42.59C500.14,49.89,582.88,0,669.28,0c107.08,0,188.61,85.18,188.61,205.65s-82.75,217.82-204.44,217.82c-114.38,0-191.05-81.53-256.76-164.28-66.93-86.4-132.64-166.71-210.52-166.71Z"/>
</svg>